HIERARCHY
ROOT root
{
	OFFSET	0	13.1	24.9
	CHANNELS 6  Xposition Yposition Zposition Xrotation Yrotation Zrotation
	JOINT spine_1
	{
		OFFSET	0	9.99999	0
		CHANNELS 3  Xrotation Yrotation Zrotation
		JOINT spine_2
		{
			OFFSET	0	112	-10
			CHANNELS 3  Xrotation Yrotation Zrotation
			JOINT spine_3
			{
				OFFSET	0	206.5	19.3
				CHANNELS 3  Xrotation Yrotation Zrotation
				JOINT spine_4
				{
					OFFSET	0	110.4	14.6
					CHANNELS 3  Xrotation Yrotation Zrotation
					JOINT neck_1
					{
						OFFSET	0	71.8	-50.3
						CHANNELS 3  Xrotation Yrotation Zrotation
						JOINT neck_2
						{
							OFFSET	0	86.2	-25.8
							CHANNELS 3  Xrotation Yrotation Zrotation
							JOINT head_ee
							{
								OFFSET	0	179.8	-8.7
								CHANNELS 3  Xrotation Yrotation Zrotation
								End Site
								{
									OFFSET	1	0	0
								}
							}
						}
					}
					JOINT left_clavicle
					{
						OFFSET	-43.2	22.4	-70.8
						CHANNELS 3  Xrotation Yrotation Zrotation
						JOINT left_shoulder
						{
							OFFSET	-93.9	-5.79999	48.7
							CHANNELS 3  Xrotation Yrotation Zrotation
							JOINT left_elbow
							{
								OFFSET	-291.4	-30.8	15.2
								CHANNELS 3  Xrotation Yrotation Zrotation
								JOINT left_lowarm_twist
								{
									OFFSET	-110.7	-3.89999	13.6
									CHANNELS 3  Xrotation Yrotation Zrotation
									JOINT left_hand
									{
										OFFSET	-110.7	-3.89999	13.6
										CHANNELS 3  Xrotation Yrotation Zrotation
										JOINT left_ee
										{
											OFFSET	-80.8	-5.10001	12.1
											CHANNELS 3  Xrotation Yrotation Zrotation
											End Site
											{
												OFFSET	1	0	0
											}
										}
									}
								}
							}
						}
					}
					JOINT right_clavicle
					{
						OFFSET	43.2	22.4	-70.8
						CHANNELS 3  Xrotation Yrotation Zrotation
						JOINT right_shoulder
						{
							OFFSET	93.9	-5.79999	48.7
							CHANNELS 3  Xrotation Yrotation Zrotation
							JOINT right_elbow
							{
								OFFSET	291.4	-30.8	15.2
								CHANNELS 3  Xrotation Yrotation Zrotation
								JOINT right_lowarm_twist
								{
									OFFSET	110.7	-3.89999	13.6
									CHANNELS 3  Xrotation Yrotation Zrotation
									JOINT right_hand
									{
										OFFSET	110.7	-3.89999	13.6
										CHANNELS 3  Xrotation Yrotation Zrotation
										JOINT right_ee
										{
											OFFSET	80.8	-5.10001	12.1
											CHANNELS 3  Xrotation Yrotation Zrotation
											End Site
											{
												OFFSET	1	0	0
											}
										}
									}
								}
							}
						}
					}
				}
			}
		}
	}
	JOINT left_hip
	{
		OFFSET	-82.8	-127.5	0.300001
		CHANNELS 3  Xrotation Yrotation Zrotation
		JOINT left_knee
		{
			OFFSET	-28.2	-396.7	2.2
			CHANNELS 3  Xrotation Yrotation Zrotation
			JOINT left_ankle
			{
				OFFSET	-11.7	-411.3	35.4
				CHANNELS 3  Xrotation Yrotation Zrotation
				JOINT left_toes
				{
					OFFSET	0	-60	-88.6
					CHANNELS 3  Xrotation Yrotation Zrotation
					JOINT left_foot_ee
					{
						OFFSET	-22.5	-16.5	-42.2
						CHANNELS 3  Xrotation Yrotation Zrotation
						End Site
						{
							OFFSET	1	0	0
						}
					}
				}
			}
		}
	}
	JOINT right_hip
	{
		OFFSET	82.8	-127.5	0.300001
		CHANNELS 3  Xrotation Yrotation Zrotation
		JOINT right_knee
		{
			OFFSET	28.2	-396.7	2.2
			CHANNELS 3  Xrotation Yrotation Zrotation
			JOINT right_ankle
			{
				OFFSET	11.7	-411.3	35.4
				CHANNELS 3  Xrotation Yrotation Zrotation
				JOINT right_toes
				{
					OFFSET	0	-60	-88.6
					CHANNELS 3  Xrotation Yrotation Zrotation
					JOINT right_foot_ee
					{
						OFFSET	22.5	-16.5	-42.2
						CHANNELS 3  Xrotation Yrotation Zrotation
						End Site
						{
							OFFSET	1	0	0
						}
					}
				}
			}
		}
	}
}
MOTION
Frames: 11
Frame Time: 0.02
2587.54959699 768.309 -1546.84667424 -167.709573241 77.9544183686 162.94035439 -0.06664 0.566271 3.40525 -0.0602575 0.34857 3.43433 -0.0357928 -0.383419 3.43062 -0.0521766 0.162862 3.44811 0.485066 7.06684 -3.27183 0.732059 15.2407 -2.8626 -0.0 0.0 -0.0 -1.30463 -17.4071 -4.84727 -24.9531 -33.1162 61.7255 0.577869 -15.9744 0.0810835 -71.7693 -6.77199 5.31463 3.09767 -11.8248 16.0493 -0.0 0.0 -0.0 9.92313 -16.8856 -17.8266 -18.7329 18.6658 -59.4372 2.04514 45.3676 -0.854897 42.0492 0.460121 5.23297 4.4951 20.3786 -21.4834 0.0 0.0 0.0 15.1958 -21.3238 1.00761 -27.0497 0.145715 4.11012 0.177484 3.40393 -0.0260617 13.1513 -0.0 -0.0 -0.0 0.0 -0.0 16.7208 -32.2974 2.45563 -8.58812 -0.257187 -1.29169 14.4311 25.563 2.40865 -10.7942 0.0 0.0 0.0 0.0 0.0 
2580.96775981 769.839 -1538.61423433 -168.380261562 75.9310478858 163.434215218 -0.0499262 0.577652 3.52576 -0.0430804 0.352274 3.55532 -0.0174399 -0.404206 3.5498 -0.0349854 0.161122 3.56908 -0.404677 7.01559 -4.32965 -0.127419 16.047 -3.89448 -0.0 0.0 -0.0 -1.41781 -16.9498 -5.0346 -24.8514 -32.9183 62.1327 0.583466 -16.1211 0.0826305 -71.8829 -6.7865 5.31518 2.90371 -11.6223 14.7898 -0.0 0.0 -0.0 9.83523 -16.7039 -17.7044 -17.1768 18.983 -59.1358 2.12337 46.4419 -0.911079 41.9361 0.453777 5.21996 4.40836 19.7071 -21.2509 0.0 0.0 0.0 16.6006 -20.4626 1.37089 -23.9305 0.228307 3.63862 -2.03304 2.27708 0.300662 12.5258 -0.0 -0.0 -0.0 0.0 -0.0 16.16 -32.2949 2.28351 -8.66474 -0.258605 -1.30336 14.4015 25.0984 2.39151 -11.4891 0.0 0.0 0.0 0.0 0.0 
2569.51951226 771.715 -1531.74592423 -166.199777384 74.4273552728 161.576165528 0.025329 0.554885 3.67363 0.0327789 0.320162 3.70144 0.0573292 -0.461668 3.68649 0.0383897 0.125922 3.71311 -3.54 6.87751 -8.62789 -3.10863 19.1723 -7.96667 -0.0 0.0 -0.0 -1.75216 -16.2121 -5.66124 -25.0512 -32.5526 62.3751 0.625756 -17.2226 0.0947637 -72.1175 -6.81648 5.31623 2.2183 -10.8761 10.3966 -0.0 0.0 -0.0 9.80624 -17.7325 -17.5033 -14.7413 19.4204 -59.0135 2.17856 47.1751 -0.951318 41.4007 0.424114 5.15822 4.10538 17.2934 -20.4264 0.0 0.0 0.0 18.0172 -17.7385 1.28812 -18.2399 0.312434 2.76983 -8.98288 -1.16349 1.35727 10.5761 -0.0 -0.0 -0.0 0.0 -0.0 15.4646 -32.3555 2.25656 -8.91959 -0.26321 -1.3422 13.1197 23.2383 2.14831 -14.1868 0.0 0.0 0.0 0.0 0.0 
2555.19366874 771.432 -1521.70382342 -170.505185901 73.167682745 165.707691291 -0.175054 0.517522 3.62282 -0.167799 0.286101 3.64836 -0.145478 -0.496764 3.62572 -0.16381 0.0816877 3.65864 -6.09348 6.95655 -12.3111 -5.50498 21.8903 -11.2641 -0.0 0.0 -0.0 -2.03455 -14.9596 -6.10473 -25.7288 -32.2866 62.8182 0.666287 -18.266 0.107117 -72.343 -6.84531 5.31713 1.63858 -10.2204 6.73081 -0.0 0.0 -0.0 9.78034 -18.8765 -17.285 -13.7849 19.4829 -59.0151 2.16832 47.0406 -0.943817 40.9198 0.397967 5.10255 3.84562 15.2121 -19.6681 0.0 0.0 0.0 19.3866 -15.4949 1.19829 -13.7699 0.317825 2.08419 -14.6811 -4.0932 2.25634 8.94278 -0.0 -0.0 -0.0 0.0 -0.0 14.9882 -32.4188 2.36727 -9.07005 -0.265847 -1.36514 11.8848 21.5284 1.92342 -16.5051 0.0 0.0 0.0 0.0 0.0 
2498.94461441 779.771 -1537.94968501 -161.926391052 75.2792135656 157.887643322 0.625656 0.310676 3.37906 0.632003 0.095154 3.39197 0.639594 -0.583209 3.34286 0.624006 -0.0482639 3.39296 -3.42211 8.54086 -5.40197 -3.13664 19.7219 -4.353 -0.0 0.0 -0.0 -0.947141 -13.0632 -3.54321 -26.1664 -29.4518 59.7723 0.821228 -22.1369 0.160652 -71.0207 -6.67635 5.31025 0.59149 -6.32728 1.30761 -0.0 0.0 -0.0 10.3454 -11.4603 -19.3266 -18.0 19.3975 -59.7178 1.40329 34.8031 -0.439826 42.1088 0.46347 5.23981 2.48869 3.0733 -15.6264 0.0 0.0 0.0 24.6343 -14.7401 2.16236 -8.81985 0.261428 1.327 -19.2265 -6.5817 2.9957 4.87994 -0.0 -0.0 -0.0 0.0 -0.0 13.4697 -32.6055 3.05889 -11.8639 -0.303858 -1.7921 12.8252 23.4355 2.10728 -16.788 0.0 0.0 0.0 0.0 0.0 
2497.32008162 785.306 -1541.5399254 -157.057783261 77.0061956461 152.670395391 0.781965 0.436088 3.25746 0.787838 0.228038 3.27857 0.802645 -0.420844 3.25946 0.787835 0.0989206 3.285 -4.47011 8.74422 -4.80458 -4.25798 19.661 -3.5057 -0.0 0.0 -0.0 -0.463817 -12.797 -2.48967 -25.3765 -28.8951 59.6163 0.864378 -23.1798 0.177275 -70.7533 -6.64219 5.30838 0.260947 -5.902 -0.742169 -0.0 0.0 -0.0 10.4847 -7.61248 -20.0404 -19.4894 19.4592 -60.0864 1.18807 30.4773 -0.323664 42.3417 0.476632 5.26654 2.43322 1.40499 -15.9228 0.0 0.0 0.0 24.7316 -14.8867 2.40304 -9.34746 0.270552 1.40744 -21.0495 -7.0923 3.28942 4.25038 -0.0 -0.0 -0.0 0.0 -0.0 13.5666 -31.9333 3.39565 -11.5296 -0.300408 -1.74093 14.0221 24.3823 2.31442 -16.939 0.0 0.0 0.0 0.0 0.0 
2486.71192257 780.091 -1571.30479739 -87.4022021415 84.4948513947 82.8580378463 0.684086 0.60282 2.6259 0.687817 0.434567 2.65891 0.709491 -0.10056 2.69228 0.699524 0.325743 2.67441 -2.03781 9.21775 -1.34657 -1.85347 17.7238 -0.217927 -0.0 0.0 -0.0 0.0375616 -12.6355 -1.41463 -19.8828 -23.3761 60.2793 1.24073 -31.5745 0.350807 -69.8306 -6.52441 5.30071 -0.507033 -2.0522 -4.27274 -0.0 0.0 -0.0 10.4831 0.0857646 -20.6614 -23.8865 20.3866 -61.4188 0.826945 22.276 -0.162813 47.5681 0.800263 5.85157 1.36887 -10.7136 -13.2902 0.0 0.0 0.0 22.4613 -13.6072 1.9254 -10.9042 0.29315 1.64524 -13.7832 -8.55129 2.16138 -1.20513 0.0 0.0 -0.0 0.0 -0.0 13.5758 -24.4606 3.59314 -12.8562 -0.312342 -1.94411 18.5798 21.8082 2.91918 -21.3993 0.0 0.0 0.0 0.0 0.0 
2487.05972702 773.824 -1578.66759174 -66.8036451774 83.9820468913 62.2024468127 0.668476 0.608504 2.40255 0.671573 0.454437 2.43637 0.692226 -0.0377249 2.47808 0.683832 0.353995 2.45297 -0.800375 8.9495 -1.119 -0.597323 16.9469 -0.177574 -0.0 0.0 -0.0 0.0450156 -12.1513 -1.34277 -18.1334 -20.9447 60.9472 1.48519 -36.3403 0.487474 -70.4336 -6.60137 5.30594 -0.775638 -0.122824 -5.24015 -0.0 0.0 -0.0 10.5232 3.18809 -20.8886 -24.0028 20.1192 -61.9627 0.744948 20.2553 -0.133068 50.7323 1.02173 6.19074 1.10095 -14.279 -12.8231 0.0 0.0 0.0 21.2391 -13.3757 2.06528 -10.0538 0.281606 1.51526 -6.24271 -7.60688 0.963736 -3.74009 0.0 0.0 -0.0 0.0 -0.0 13.5527 -22.705 3.54124 -13.5442 -0.316678 -2.04959 21.9821 18.4363 3.28952 -23.7089 0.0 0.0 0.0 0.0 0.0 
2486.3695984 773.824 -1576.57949838 -70.2042833386 84.121626358 65.6214794937 0.668476 0.608504 2.40255 0.671573 0.454437 2.43637 0.692226 -0.0377249 2.47808 0.683832 0.353995 2.45297 -0.800375 8.9495 -1.119 -0.597323 16.9469 -0.177574 -0.0 0.0 -0.0 0.0450156 -12.1513 -1.34277 -18.1334 -20.9447 60.9472 1.48519 -36.3403 0.487474 -70.4336 -6.60137 5.30594 -0.775638 -0.122824 -5.24015 -0.0 0.0 -0.0 10.5232 3.18809 -20.8886 -24.0028 20.1192 -61.9627 0.744948 20.2553 -0.133068 50.7323 1.02173 6.19074 1.10095 -14.279 -12.8231 0.0 0.0 0.0 21.2391 -13.3757 2.06528 -10.0538 0.281606 1.51526 -6.24271 -7.60688 0.963736 -3.74009 0.0 0.0 -0.0 0.0 -0.0 13.5527 -22.705 3.54124 -13.5442 -0.316678 -2.04959 21.9821 18.4363 3.28952 -23.7089 0.0 0.0 0.0 0.0 0.0 
2487.18837987 773.824 -1579.05177138 -66.194898636 83.9540763761 61.5903112486 0.668476 0.608504 2.40255 0.671573 0.454437 2.43637 0.692226 -0.0377249 2.47808 0.683832 0.353995 2.45297 -0.800375 8.9495 -1.119 -0.597323 16.9469 -0.177574 -0.0 0.0 -0.0 0.0450156 -12.1513 -1.34277 -18.1334 -20.9447 60.9472 1.48519 -36.3403 0.487474 -70.4336 -6.60137 5.30594 -0.775638 -0.122824 -5.24015 -0.0 0.0 -0.0 10.5232 3.18809 -20.8886 -24.0028 20.1192 -61.9627 0.744948 20.2553 -0.133068 50.7323 1.02173 6.19074 1.10095 -14.279 -12.8231 0.0 0.0 0.0 21.2391 -13.3757 2.06528 -10.0538 0.281606 1.51526 -6.24271 -7.60688 0.963736 -3.74009 0.0 0.0 -0.0 0.0 -0.0 13.5527 -22.705 3.54124 -13.5442 -0.316678 -2.04959 21.9821 18.4363 3.28952 -23.7089 0.0 0.0 0.0 0.0 0.0 
2486.95433102 773.824 -1578.3516915 -67.308228975 84.0045228202 62.7098162062 0.668476 0.608504 2.40255 0.671573 0.454437 2.43637 0.692226 -0.0377249 2.47808 0.683832 0.353995 2.45297 -0.800375 8.9495 -1.119 -0.597323 16.9469 -0.177574 -0.0 0.0 -0.0 0.0450156 -12.1513 -1.34277 -18.1334 -20.9447 60.9472 1.48519 -36.3403 0.487474 -70.4336 -6.60137 5.30594 -0.775638 -0.122824 -5.24015 -0.0 0.0 -0.0 10.5232 3.18809 -20.8886 -24.0028 20.1192 -61.9627 0.744948 20.2553 -0.133068 50.7323 1.02173 6.19074 1.10095 -14.279 -12.8231 0.0 0.0 0.0 21.2391 -13.3757 2.06528 -10.0538 0.281606 1.51526 -6.24271 -7.60688 0.963736 -3.74009 0.0 0.0 -0.0 0.0 -0.0 13.5527 -22.705 3.54124 -13.5442 -0.316678 -2.04959 21.9821 18.4363 3.28952 -23.7089 0.0 0.0 0.0 0.0 0.0 
